<?xml version="1.0" encoding="UTF-8"?>
<svg xmlns="http://www.w3.org/2000/svg" xmlns:xlink="http://www.w3.org/1999/xlink" width="317pt" height="344pt" viewBox="0 0 317 344" version="1.1">
<g id="surface1">
<path style=" stroke:none;fill-rule:evenodd;fill:rgb(100%,100%,100%);fill-opacity:1;" d="M 0.582031 0.832031 L 316.691406 0.832031 L 316.691406 343.277344 L 0.582031 343.277344 L 0.582031 0.832031 "/>
<path style=" stroke:none;fill-rule:nonzero;fill:rgb(25.099182%,25.099182%,25.498962%);fill-opacity:1;" d="M 98.0625 38.105469 C 101.347656 37.148438 104.847656 36.84375 108.230469 37.445313 C 117.347656 39.191406 125.847656 43.660156 132.726563 49.855469 C 141.070313 57.316406 147.199219 66.910156 152.066406 76.90625 C 155.394531 83.78125 158.1875 90.90625 160.628906 98.140625 C 164.835938 85.765625 169.257813 73.210938 176.867188 62.453125 C 180.421875 57.421875 184.539063 52.800781 189.09375 48.648438 C 193.757813 44.492188 199.007813 40.847656 204.921875 38.726563 C 211.058594 36.496094 218.011719 36.550781 224.097656 38.941406 C 229 40.800781 233.289063 43.976563 237.0625 47.570313 C 239.179688 49.601563 241.300781 51.734375 242.570313 54.414063 C 244.875 59.207031 245.148438 64.671875 244.761719 69.890625 C 244.242188 75.789063 242.957031 81.613281 241.039063 87.214844 C 239.121094 92.640625 236.5625 97.894531 232.980469 102.429688 C 228.816406 107.648438 224.070313 112.351563 219.308594 117.015625 C 210.375 125.585938 201.425781 134.136719 192.324219 142.527344 C 183.070313 151.113281 173.632813 159.5 164.164063 167.847656 C 167.800781 168.171875 171.480469 168.6875 174.839844 170.179688 C 178.988281 171.964844 182.371094 175.164063 184.984375 178.796875 C 188.394531 183.441406 190.96875 188.84375 195.53125 192.535156 C 198.085938 194.566406 201.074219 196.363281 202.546875 199.410156 C 203.886719 202.449219 204.121094 205.886719 203.703125 209.152344 C 207.859375 209.871094 211.878906 211.21875 215.761719 212.847656 C 218.007813 213.8125 220.246094 215.109375 221.609375 217.203125 C 221.964844 218.105469 221.582031 219.074219 221.492188 219.992188 C 219.214844 216.714844 215.289063 215.230469 211.636719 214.070313 C 208.828125 213.253906 205.988281 212.480469 203.089844 212.085938 C 202.710938 213.660156 202.140625 215.183594 201.480469 216.660156 C 205.082031 217.96875 208.5 219.714844 211.800781 221.65625 C 213.976563 222.988281 216.164063 224.597656 217.304688 226.953125 C 217.785156 227.871094 217.417969 228.925781 217.238281 229.878906 C 215.992188 227.3125 213.625 225.5625 211.242188 224.132813 C 207.753906 222.136719 204.03125 220.5625 200.238281 219.253906 C 197.933594 223.304688 195.59375 227.507813 192.003906 230.578125 C 188.5625 233.496094 183.914063 234.882813 179.433594 234.40625 C 174.191406 233.910156 169.324219 231.398438 165.328125 228.058594 C 163.597656 226.582031 161.832031 225.148438 160.226563 223.539063 C 156.894531 227.808594 152.640625 231.523438 147.539063 233.480469 C 143.113281 235.199219 138.011719 235.042969 133.734375 232.96875 C 128.003906 230.210938 123.765625 225.097656 120.703125 219.644531 C 117.710938 220.773438 114.824219 222.171875 112.015625 223.695313 C 109.3125 225.160156 106.632813 227.054688 105.230469 229.882813 C 105.183594 228.875 104.722656 227.785156 105.246094 226.835938 C 106.195313 224.90625 107.871094 223.457031 109.609375 222.257813 C 112.683594 220.179688 116.097656 218.671875 119.519531 217.28125 C 118.886719 215.882813 118.375 214.429688 117.917969 212.964844 C 115.179688 213.628906 112.492188 214.523438 109.84375 215.484375 C 107.121094 216.539063 104.226563 217.878906 102.644531 220.46875 C 102.574219 219.554688 102.222656 218.613281 102.476563 217.710938 C 103.367188 216.160156 104.839844 215.046875 106.359375 214.15625 C 109.753906 212.246094 113.558594 211.273438 117.296875 210.296875 C 116.621094 206.738281 116.746094 202.886719 118.425781 199.613281 C 120.027344 196.589844 122.714844 194.375 125.191406 192.085938 C 129.152344 188.5625 132.011719 184.042969 135.222656 179.871094 C 138.382813 175.726563 142.207031 171.953125 146.859375 169.523438 C 149.453125 168.136719 152.441406 167.769531 155.347656 167.886719 C 146.167969 159.875 137.078125 151.757813 128.128906 143.488281 C 118.011719 134.117188 107.953125 124.671875 98.175781 114.945313 C 91.410156 108.007813 84.917969 100.566406 80.652344 91.785156 C 77.472656 85.480469 75.648438 78.53125 75.09375 71.5 C 74.605469 66.011719 74.675781 60.234375 76.96875 55.121094 C 77.960938 52.886719 79.449219 50.910156 81.171875 49.195313 C 85.890625 44.339844 91.5 40.070313 98.0625 38.105469 Z M 200.28125 46.511719 C 190.371094 52.101563 182.128906 60.378906 176.015625 69.933594 C 168.574219 81.507813 163.75 94.492188 159.347656 107.457031 C 159.378906 105.628906 158.644531 103.753906 159.304688 101.96875 C 159.441406 101.46875 159.796875 100.957031 159.519531 100.4375 C 156.066406 90.683594 152.085938 81.042969 146.644531 72.210938 C 140.839844 62.644531 133.050781 54.066406 123.289063 48.445313 C 117.367188 45.09375 110.785156 42.226563 103.835938 42.574219 C 96.496094 42.863281 89.582031 46.355469 84.269531 51.304688 C 81.328125 54.03125 78.128906 56.8125 76.714844 60.679688 C 74.878906 66.007813 75.640625 71.824219 77.1875 77.121094 C 78.507813 81.5625 80.226563 85.898438 82.441406 89.96875 C 86.839844 98.050781 92.984375 105.011719 99.492188 111.445313 C 104.84375 116.6875 110.445313 121.664063 115.867188 126.828125 C 130.214844 140.347656 144.824219 153.578125 159.671875 166.539063 C 169.652344 157.945313 179.46875 149.171875 189.164063 140.265625 C 197.960938 132.222656 206.539063 123.953125 215.300781 115.875 C 223.191406 108.46875 231.007813 100.707031 236.453125 91.253906 C 239.578125 85.964844 241.605469 80.105469 243.175781 74.183594 C 244.433594 69.117188 244.953125 63.359375 242.179688 58.679688 C 239.628906 54.738281 236.152344 51.460938 232.402344 48.664063 C 226.550781 44.339844 219.222656 41.558594 211.871094 42.351563 C 207.722656 42.738281 203.824219 44.402344 200.28125 46.511719 Z M 157.175781 173.027344 C 152.5625 173.535156 147.597656 173.742188 143.691406 176.566406 C 136.886719 181.464844 133.125 189.242188 127.328125 195.125 C 124.8125 197.597656 121.832031 199.675781 119.878906 202.667969 C 118.476563 204.8125 118.164063 207.507813 118.6875 209.984375 C 124.730469 208.75 130.925781 208.324219 137.078125 208.6875 C 137.117188 209.640625 137.109375 210.59375 137.039063 211.546875 C 131.257813 211.296875 125.375 211.371094 119.703125 212.636719 C 120.0625 214.046875 120.996094 215.230469 121.707031 216.480469 C 126.921875 214.675781 132.363281 213.527344 137.855469 213 C 137.988281 213.949219 138.011719 214.914063 137.925781 215.875 C 132.984375 216.363281 128.066406 217.246094 123.328125 218.746094 C 126.59375 222.8125 130.230469 226.898438 135.136719 228.984375 C 138.160156 230.316406 141.640625 230.476563 144.789063 229.484375 C 150.480469 227.957031 155.199219 224.136719 159.0625 219.8125 C 157.933594 217.796875 157.808594 215.433594 157.609375 213.183594 C 156.210938 212.289063 154.769531 211.394531 153.660156 210.140625 C 153.121094 209.511719 152.597656 208.742188 152.703125 207.871094 C 152.796875 206.621094 154.15625 205.769531 155.347656 206.058594 C 157.390625 206.441406 158.972656 207.933594 160.511719 209.230469 C 162.148438 207.726563 163.882813 206.03125 166.132813 205.570313 C 167.769531 205.355469 168.609375 207.441406 167.851563 208.703125 C 166.800781 210.636719 164.921875 211.921875 163.113281 213.089844 C 162.953125 215.335938 162.925781 217.730469 161.738281 219.726563 C 165.492188 223.617188 169.96875 226.964844 175.101563 228.78125 C 179.324219 230.285156 184.164063 230.0625 188.164063 227.996094 C 192.257813 225.90625 195.28125 222.257813 197.710938 218.449219 C 193.4375 217.222656 189.054688 216.371094 184.628906 215.933594 C 184.523438 214.976563 184.554688 214.019531 184.675781 213.070313 C 189.613281 213.523438 194.503906 214.480469 199.253906 215.90625 C 200.085938 214.578125 200.84375 213.203125 201.582031 211.820313 C 196.789063 211.035156 191.914063 210.917969 187.070313 211.148438 C 187.007813 210.191406 187.007813 209.234375 187.058594 208.28125 C 192.234375 208.046875 197.453125 208.109375 202.574219 208.972656 C 203.007813 207.175781 202.894531 205.199219 201.898438 203.601563 C 200.039063 200.671875 196.851563 199.023438 194.277344 196.8125 C 190.691406 193.941406 188.570313 189.769531 186.191406 185.9375 C 183.492188 181.476563 179.769531 177.429688 174.964844 175.234375 C 171.304688 173.539063 167.230469 173.0625 163.242188 172.882813 C 161.21875 172.816406 159.175781 172.617188 157.175781 173.027344 Z M 146.140625 185.042969 C 147.039063 184.605469 148.023438 185.289063 148.464844 186.058594 C 149.453125 187.738281 149.527344 189.777344 149.378906 191.671875 C 149.199219 193.039063 148.855469 194.585938 147.679688 195.460938 C 146.929688 196.039063 145.84375 195.75 145.320313 195.007813 C 144.074219 193.351563 143.957031 191.125 144.121094 189.136719 C 144.3125 187.632813 144.667969 185.804688 146.140625 185.042969 Z M 170.152344 186.121094 C 170.574219 185.355469 171.472656 184.699219 172.378906 185.039063 C 173.457031 185.457031 173.9375 186.621094 174.222656 187.65625 C 174.710938 189.671875 174.6875 191.851563 173.996094 193.820313 C 173.648438 194.816406 172.875 195.664063 171.820313 195.90625 C 170.113281 195.417969 169.488281 193.570313 169.296875 191.988281 C 169.105469 190.015625 169.117188 187.878906 170.152344 186.121094 "/>
<path style=" stroke:none;fill-rule:nonzero;fill:rgb(25.099182%,25.099182%,25.498962%);fill-opacity:1;" d="M 115.28125 269.292969 C 117.957031 267.371094 121.472656 266.753906 124.660156 267.511719 C 126.972656 268.113281 129.128906 269.636719 130.113281 271.859375 C 130.75 273.21875 130.8125 274.785156 130.453125 276.234375 C 129.847656 276.363281 129.234375 276.480469 128.609375 276.472656 C 124.269531 276.472656 119.925781 276.453125 115.582031 276.472656 C 115.046875 276.542969 114.078125 276.394531 114.046875 277.171875 C 113.679688 281.375 115.375 286.039063 119.183594 288.191406 C 121.066406 289.207031 123.296875 289.597656 125.410156 289.257813 C 127.164063 288.957031 128.558594 287.707031 129.609375 286.339844 C 130.121094 286.359375 130.558594 286.605469 130.84375 287.027344 C 128.640625 291.925781 122.433594 293.929688 117.507813 292.339844 C 114.183594 291.441406 111.566406 288.703125 110.511719 285.464844 C 108.636719 279.824219 110.363281 272.851563 115.28125 269.292969 Z M 114.609375 274.5 C 116.296875 274.601563 117.992188 274.542969 119.6875 274.558594 C 121.5625 274.542969 123.476563 274.660156 125.3125 274.164063 C 125.769531 274.03125 126.007813 273.5 125.984375 273.054688 C 126.0625 271.660156 125.25 270.28125 123.992188 269.675781 C 120.316406 267.867188 115.371094 270.566406 114.609375 274.5 Z M 133.117188 251.234375 C 135.460938 250.453125 137.785156 249.621094 140.027344 248.570313 C 140.148438 248.640625 140.398438 248.765625 140.519531 248.828125 C 140.242188 260.921875 140.425781 273.023438 140.367188 285.121094 C 140.410156 286.5625 140.285156 288.070313 140.765625 289.453125 C 141.515625 290.546875 143.058594 290.417969 144.226563 290.589844 C 144.496094 291.097656 144.371094 291.65625 144.261719 292.195313 C 140.183594 291.992188 136.09375 291.953125 132.019531 292.210938 C 131.71875 291.378906 131.738281 290.199219 133.042969 290.503906 C 132.789063 290.363281 132.535156 290.226563 132.28125 290.09375 C 132.742188 289.886719 133.117188 290.132813 133.425781 290.417969 C 134.085938 290.28125 134.945313 290.28125 135.328125 289.609375 C 135.878906 288.640625 135.746094 287.460938 135.824219 286.390625 C 135.839844 276.753906 135.820313 267.117188 135.835938 257.480469 C 135.8125 256.421875 135.839844 255.332031 135.527344 254.308594 C 135.097656 253.308594 133.96875 252.945313 133.191406 252.273438 C 133.152344 251.925781 133.125 251.578125 133.117188 251.234375 Z M 148.617188 267.304688 C 149.632813 266.28125 150.394531 265.039063 151.105469 263.792969 C 151.515625 263.832031 151.929688 263.878906 152.34375 263.929688 C 152.394531 265.28125 152.285156 266.636719 152.496094 267.980469 C 155.085938 268.15625 157.691406 267.929688 160.285156 268.085938 C 160.886719 268.757813 160.839844 269.796875 160.464844 270.574219 C 157.828125 270.917969 155.085938 270.339844 152.492188 270.863281 C 152.464844 271.011719 152.40625 271.308594 152.378906 271.457031 C 152.351563 275.792969 152.378906 280.132813 152.359375 284.472656 C 152.414063 285.828125 152.542969 287.253906 153.246094 288.449219 C 154.035156 289.769531 155.726563 290.257813 157.179688 290.089844 C 158.269531 289.984375 159.179688 289.332031 160.109375 288.8125 C 160.339844 289.238281 160.789063 289.710938 160.421875 290.214844 C 158.804688 291.945313 156.410156 292.925781 154.042969 292.851563 C 152.324219 292.867188 150.410156 292.550781 149.195313 291.230469 C 148.003906 289.933594 147.78125 288.078125 147.753906 286.394531 C 147.765625 281.628906 147.746094 276.859375 147.765625 272.09375 C 147.707031 271.648438 147.882813 270.921875 147.304688 270.769531 C 146.390625 270.527344 145.421875 270.746094 144.488281 270.566406 C 144.503906 270.15625 144.523438 269.746094 144.542969 269.34375 C 145.96875 268.835938 147.488281 268.363281 148.617188 267.304688 Z M 67.628906 266.445313 C 68.035156 266.117188 68.425781 266.652344 68.355469 267.039063 C 68.375 268.3125 68.328125 269.585938 68.351563 270.855469 C 70.167969 269.453125 71.949219 267.808594 74.246094 267.277344 C 75.511719 266.996094 77.160156 267.34375 77.699219 268.660156 C 78.367188 270.15625 77.453125 272.105469 75.816406 272.4375 C 74.265625 272.847656 73.199219 271.269531 71.734375 271.144531 C 70.429688 270.871094 69.117188 271.828125 68.753906 273.058594 C 68.359375 274.292969 68.34375 275.605469 68.351563 276.886719 C 68.367188 280.488281 68.335938 284.085938 68.367188 287.683594 C 68.441406 288.574219 68.496094 289.792969 69.488281 290.164063 C 70.582031 290.554688 71.777344 290.390625 72.90625 290.601563 C 73.429688 291 73.109375 291.675781 73.027344 292.199219 C 68.757813 292.027344 64.476563 291.917969 60.207031 292.210938 C 60.054688 291.664063 59.933594 291.097656 60.222656 290.582031 C 61.539063 290.433594 63.535156 290.328125 63.617188 288.59375 C 63.875 283.519531 63.671875 278.421875 63.726563 273.339844 C 63.863281 272.03125 62.714844 271.226563 61.757813 270.59375 C 61.25 270.367188 61.457031 269.765625 61.484375 269.351563 C 63.636719 268.617188 65.613281 267.476563 67.628906 266.445313 Z M 42.132813 269.25 C 45.953125 267.058594 50.695313 266.660156 54.898438 267.863281 C 56.785156 268.171875 57.199219 270.671875 56.464844 272.148438 C 56.253906 272.90625 55.144531 273.320313 54.625 272.625 C 53.175781 270.941406 51.207031 269.542969 48.9375 269.355469 C 46.191406 269.183594 43.425781 270.578125 41.90625 272.867188 C 38.882813 277.4375 39.882813 284.3125 44.335938 287.617188 C 47.382813 289.828125 52.097656 290.171875 55.03125 287.589844 C 55.679688 286.992188 56.210938 286.289063 56.757813 285.609375 C 57.167969 285.824219 57.546875 286.09375 57.882813 286.425781 C 56.992188 288.484375 55.429688 290.265625 53.453125 291.335938 C 49.699219 293.445313 44.832031 293.347656 41.117188 291.207031 C 38.40625 289.621094 36.601563 286.761719 35.992188 283.71875 C 35.65625 281.824219 35.652344 279.863281 35.988281 277.972656 C 36.683594 274.375 38.921875 271.0625 42.132813 269.25 Z M 86.007813 267.667969 C 86.753906 267.472656 87.496094 267.199219 88.28125 267.253906 C 88.039063 272.578125 88.179688 277.914063 88.140625 283.242188 C 88.191406 285.207031 88.367188 287.460938 89.925781 288.859375 C 90.777344 289.5 91.867188 289.976563 92.949219 289.835938 L 93.078125 289.75 C 94.605469 290.316406 96.25 289.582031 97.617188 288.890625 C 98.925781 288.25 99.8125 286.902344 99.800781 285.4375 C 99.855469 281.515625 99.808594 277.59375 99.824219 273.675781 C 99.753906 272.691406 99.800781 271.539063 99.070313 270.78125 C 98.359375 270.210938 97.460938 269.964844 96.621094 269.648438 C 96.476563 269.167969 96.492188 268.695313 96.75 268.261719 C 99.226563 268.253906 101.707031 267.914063 104.089844 267.226563 L 104.472656 267.347656 C 104.710938 268.148438 104.425781 269.019531 104.457031 269.847656 C 104.429688 275.046875 104.445313 280.242188 104.449219 285.441406 C 104.511719 286.691406 104.457031 288.050781 105.117188 289.167969 C 106.054688 290.160156 107.582031 289.445313 108.742188 289.371094 C 108.921875 289.960938 109.253906 291.132813 108.351563 291.253906 C 105.613281 291.785156 102.890625 292.417969 100.3125 293.488281 C 99.066406 292.6875 100.550781 290.511719 99.394531 289.742188 C 97.296875 290.984375 95.167969 292.324219 92.707031 292.710938 C 90.359375 293.046875 87.722656 292.914063 85.769531 291.414063 C 84.210938 290.148438 83.652344 288.042969 83.613281 286.109375 C 83.597656 282.175781 83.625 278.242188 83.601563 274.308594 C 83.496094 273.179688 83.675781 271.9375 83.097656 270.917969 C 82.488281 270.246094 81.601563 269.964844 80.816406 269.589844 C 80.839844 269.160156 80.867188 268.742188 80.902344 268.324219 C 82.617188 268.238281 84.339844 268.109375 86.007813 267.667969 Z M 179.773438 267.914063 C 182.621094 268.121094 185.480469 268.070313 188.328125 267.886719 C 188.976563 267.8125 189.015625 268.695313 188.917969 269.160156 C 188.664063 269.597656 188.09375 269.519531 187.675781 269.652344 C 186.277344 269.828125 185.289063 270.972656 184.589844 272.097656 C 183.390625 274.054688 182.464844 276.160156 181.449219 278.214844 C 177.324219 286.566406 173.359375 294.996094 169.496094 303.472656 C 169.003906 304.585938 168.488281 305.78125 167.445313 306.492188 C 166.53125 307.179688 165.3125 306.996094 164.242188 306.960938 C 162.136719 306.539063 161.863281 303.050781 163.804688 302.210938 C 164.988281 301.65625 166.507813 302.410156 167.566406 301.503906 C 168.359375 300.683594 168.847656 299.628906 169.441406 298.660156 C 170.472656 296.714844 171.578125 294.761719 172.082031 292.601563 C 172.472656 291.097656 171.914063 289.59375 171.433594 288.183594 C 169.609375 283.117188 167.742188 278.0625 165.910156 273.003906 C 165.496094 271.984375 165.078125 270.839844 164.097656 270.234375 C 163.300781 269.691406 162.285156 269.746094 161.398438 269.445313 C 160.832031 269.105469 161.242188 268.355469 161.3125 267.871094 C 164.941406 268.054688 168.578125 268.136719 172.203125 267.886719 C 173.089844 267.601563 173.195313 268.769531 172.925781 269.335938 C 171.976563 269.753906 170.878906 269.757813 169.921875 270.203125 C 170.128906 271.976563 170.835938 273.636719 171.390625 275.328125 C 172.695313 278.90625 173.773438 282.582031 175.347656 286.058594 C 177.511719 282.042969 179.195313 277.789063 180.90625 273.566406 C 181.195313 272.519531 181.945313 271.410156 181.5625 270.320313 C 180.640625 269.554688 179.320313 269.71875 178.214844 269.433594 C 178.1875 268.953125 178.003906 268.429688 178.269531 267.992188 C 178.742188 267.777344 179.269531 267.914063 179.773438 267.914063 "/>
<path style=" stroke:none;fill-rule:nonzero;fill:rgb(94.499207%,47.099304%,68.598938%);fill-opacity:1;" d="M 204.640625 54.359375 C 208.1875 52.378906 212.246094 51.105469 216.347656 51.414063 C 219.472656 51.617188 222.488281 52.730469 225.128906 54.390625 C 227.625 55.945313 230.019531 57.878906 231.417969 60.523438 C 233.308594 63.929688 233.539063 68.003906 232.921875 71.785156 C 231.851563 78.464844 228.757813 84.59375 225.429688 90.40625 C 219.324219 100.621094 211.789063 109.898438 203.851563 118.738281 C 195.882813 127.492188 187.449219 135.839844 178.53125 143.628906 C 174.730469 146.953125 170.835938 150.175781 166.746094 153.136719 C 164.730469 154.515625 162.746094 156.011719 160.398438 156.777344 C 158.371094 156.273438 156.683594 154.988281 154.976563 153.851563 C 149.761719 150.125 144.886719 145.945313 140.117188 141.671875 C 134.675781 136.835938 129.429688 131.777344 124.316406 126.597656 C 113.871094 115.984375 103.867188 104.839844 95.449219 92.527344 C 91.964844 87.316406 88.710938 81.878906 86.636719 75.941406 C 85.46875 72.589844 84.761719 68.949219 85.4375 65.414063 C 85.949219 62.90625 87.542969 60.691406 89.671875 59.296875 C 94.484375 55.867188 100.3125 53.46875 106.3125 53.878906 C 112.613281 54.1875 118.347656 57.421875 123.058594 61.429688 C 129.390625 66.878906 134.324219 73.734375 138.667969 80.820313 C 147.5625 95.675781 153.921875 111.902344 159.183594 128.355469 C 163.699219 115.683594 168.988281 103.277344 175.171875 91.328125 C 180.375 81.539063 186.105469 71.90625 193.554688 63.636719 C 196.804688 60.066406 200.433594 56.765625 204.640625 54.359375 "/>
<path style=" stroke:none;fill-rule:nonzero;fill:rgb(94.499207%,47.099304%,68.598938%);fill-opacity:1;" d="M 199.777344 252.644531 C 201.703125 250.242188 204.714844 248.929688 207.738281 248.660156 C 209.773438 248.414063 211.890625 248.667969 213.75 249.558594 C 215.488281 250.425781 216.914063 252.316406 216.464844 254.34375 C 216.113281 256.804688 212.730469 257.683594 210.914063 256.257813 C 209.480469 254.835938 208.496094 252.894531 206.667969 251.910156 C 205.613281 251.503906 204.695313 252.507813 204.40625 253.433594 C 203.433594 256.261719 203.785156 259.304688 203.714844 262.242188 C 203.78125 264.023438 203.519531 265.839844 203.933594 267.589844 C 206.371094 267.835938 208.828125 267.671875 211.273438 267.710938 C 211.578125 268.769531 211.679688 270.195313 210.75 270.96875 C 208.449219 271.328125 206.011719 270.621094 203.769531 271.339844 C 203.644531 275.835938 203.746094 280.335938 203.714844 284.828125 C 203.75 286.246094 203.636719 287.734375 204.152344 289.085938 C 205.023438 290.386719 206.835938 289.648438 208.050781 290.246094 C 208.5625 290.792969 208.242188 291.578125 208.105469 292.210938 C 202.902344 291.992188 197.675781 291.902344 192.476563 292.203125 C 191.859375 291.804688 191.855469 290.605469 192.371094 290.109375 C 193.402344 289.867188 194.902344 290.09375 195.394531 288.898438 C 195.800781 287.582031 195.742188 286.171875 195.777344 284.808594 C 195.769531 280.78125 195.761719 276.75 195.789063 272.722656 C 195.730469 272.136719 195.863281 271.167969 195.070313 271.078125 C 194.003906 270.960938 192.925781 271.046875 191.859375 271.066406 C 191.734375 270.53125 191.472656 269.964844 191.714844 269.429688 C 192.859375 268.59375 194.300781 268.25 195.394531 267.332031 C 195.921875 266.707031 195.71875 265.828125 195.796875 265.082031 C 195.96875 260.703125 196.796875 256.042969 199.777344 252.644531 Z M 221.210938 266.164063 C 221.667969 265.773438 222.296875 266.019531 222.621094 266.457031 C 222.710938 267.550781 222.242188 268.65625 222.558594 269.730469 C 223.1875 270 223.613281 269.296875 224.101563 269.023438 C 225.738281 267.707031 227.796875 266.34375 229.996094 266.992188 C 232.152344 267.667969 232.847656 270.464844 231.921875 272.359375 C 231.28125 273.917969 229.402344 274.65625 227.816406 274.390625 C 226.285156 274.109375 225.460938 272.492188 223.964844 272.167969 C 223.21875 271.984375 222.871094 272.757813 222.777344 273.359375 C 222.445313 275.566406 222.589844 277.808594 222.558594 280.039063 C 222.578125 282.695313 222.476563 285.359375 222.722656 288.007813 C 222.800781 288.644531 222.925781 289.460938 223.644531 289.691406 C 224.710938 290.027344 225.851563 289.980469 226.957031 290.117188 C 227.152344 290.828125 227.136719 291.558594 226.941406 292.265625 C 221.679688 292.230469 216.410156 292.046875 211.148438 292.3125 C 210.804688 291.597656 210.753906 290.832031 211.117188 290.117188 C 212.234375 289.925781 213.933594 290.160156 214.328125 288.773438 C 214.785156 286.847656 214.515625 284.847656 214.589844 282.886719 C 214.535156 279.824219 214.710938 276.746094 214.511719 273.691406 C 214.464844 272.453125 213.160156 272.011719 212.40625 271.261719 C 212.246094 270.707031 212.15625 269.738281 212.878906 269.5625 C 215.746094 268.667969 218.570313 267.601563 221.210938 266.164063 Z M 269.105469 267.011719 C 271.804688 266.644531 274.71875 266.796875 277.09375 268.253906 C 279.925781 269.832031 281.507813 273.242188 281.074219 276.425781 C 280.976563 277.257813 280.035156 277.636719 279.300781 277.65625 C 274.832031 277.757813 270.351563 277.527344 265.890625 277.773438 C 265.472656 280.996094 266.859375 284.484375 269.613281 286.289063 C 271.460938 287.566406 273.816406 287.78125 275.984375 287.457031 C 277.558594 287.167969 278.796875 286.054688 279.714844 284.804688 C 280.382813 283.820313 281.878906 285.109375 281.46875 286.046875 C 279.9375 289.582031 276.488281 292.214844 272.664063 292.738281 C 268.480469 293.328125 263.835938 292.023438 261.074219 288.695313 C 257.601563 284.484375 257.394531 278.164063 259.992188 273.46875 C 261.808594 270.050781 265.277344 267.585938 269.105469 267.011719 Z M 266.226563 274.320313 C 267.136719 275.082031 268.367188 274.796875 269.457031 274.84375 C 270.851563 274.792969 272.347656 275.042969 273.648438 274.402344 C 274.371094 273.84375 274.160156 272.785156 274.03125 272.007813 C 273.765625 270.503906 272.164063 269.554688 270.710938 269.699219 C 268.378906 269.9375 266.371094 271.964844 266.226563 274.320313 Z M 237.898438 269.46875 C 240.992188 267.046875 245.207031 266.328125 249 267.183594 C 251.707031 267.816406 254.179688 269.75 255.109375 272.421875 C 255.578125 273.75 255.886719 275.226563 255.546875 276.625 C 255.390625 277.292969 254.65625 277.546875 254.054688 277.636719 C 249.515625 277.792969 244.953125 277.503906 240.421875 277.789063 C 240.019531 280.933594 241.300781 284.335938 243.941406 286.171875 C 245.882813 287.539063 248.394531 287.832031 250.691406 287.410156 C 252.1875 287.101563 253.359375 286.023438 254.234375 284.820313 C 254.902344 283.839844 256.429688 285.085938 256.015625 286.042969 C 255.226563 287.949219 253.769531 289.511719 252.152344 290.753906 C 246.839844 294.503906 238.453125 293.203125 234.839844 287.683594 C 231.152344 282.011719 232.480469 273.601563 237.898438 269.46875 Z M 240.867188 274.574219 C 242.203125 274.984375 243.605469 274.796875 244.984375 274.84375 C 245.984375 274.835938 247.058594 274.953125 247.980469 274.460938 C 248.84375 274.105469 248.691406 272.988281 248.609375 272.238281 C 248.417969 270.765625 247.039063 269.675781 245.582031 269.691406 C 243.101563 269.757813 240.566406 271.957031 240.867188 274.574219 "/>
</g>
</svg>
